<?xml version="1.0" standalone="no"?>
<!DOCTYPE svg PUBLIC "-//W3C//DTD SVG 20010904//EN"
 "http://www.w3.org/TR/2001/REC-SVG-20010904/DTD/svg10.dtd">
<svg version="1.0" xmlns="http://www.w3.org/2000/svg"
 width="512.000000pt" height="512.000000pt" viewBox="0 0 512.000000 512.000000"
 preserveAspectRatio="xMidYMid meet">

<g transform="translate(0.000000,512.000000) scale(0.100000,-0.100000)"
fill="#000000" stroke="none">
<path d="M795 4710 c-11 -5 -104 -91 -208 -192 -173 -169 -188 -186 -187 -218
0 -33 62 -97 1062 -1097 1007 -1007 1065 -1063 1098 -1063 33 0 91 56 1098
1063 995 995 1062 1064 1062 1096 0 31 -18 52 -193 228 -176 177 -195 193
-227 193 -33 0 -84 -49 -887 -852 l-853 -853 -843 842 c-463 462 -852 846
-864 852 -25 13 -31 13 -58 1z"/>
<path d="M805 2972 c-11 -2 -107 -87 -213 -190 -178 -173 -192 -190 -192 -222
0 -33 59 -94 1063 -1097 1004 -1005 1064 -1063 1097 -1063 33 0 93 58 1097
1063 1002 1001 1063 1064 1063 1097 0 31 -17 51 -193 227 -176 176 -196 193
-227 193 -32 0 -87 -52 -887 -852 l-853 -853 -843 842 c-463 463 -853 846
-867 851 -14 4 -34 6 -45 4z"/>
</g>
</svg>
